<svg width="512" height="512" viewBox="0 0 512 512" fill="none" xmlns="http://www.w3.org/2000/svg">
<g clip-path="url(#clip0_1_481)">
<path d="M512 0H0V512H512V0Z" fill="white"/>
<path d="M394.24 71.68H189.44C180.957 71.68 174.08 78.5569 174.08 87.04V168.96C174.08 177.443 180.957 184.32 189.44 184.32H394.24C402.723 184.32 409.6 177.443 409.6 168.96V87.04C409.6 78.5569 402.723 71.68 394.24 71.68Z" fill="#0A0A0A"/>
<path d="M302.08 102.4H209.92C207.092 102.4 204.8 104.692 204.8 107.52V110.08C204.8 112.908 207.092 115.2 209.92 115.2H302.08C304.908 115.2 307.2 112.908 307.2 110.08V107.52C307.2 104.692 304.908 102.4 302.08 102.4Z" fill="white"/>
<path d="M271.36 133.12H209.92C207.092 133.12 204.8 135.412 204.8 138.24V140.8C204.8 143.628 207.092 145.92 209.92 145.92H271.36C274.188 145.92 276.48 143.628 276.48 140.8V138.24C276.48 135.412 274.188 133.12 271.36 133.12Z" fill="white"/>
<mask id="mask0_1_481" style="mask-type:luminance" maskUnits="userSpaceOnUse" x="0" y="0" width="512" height="512">
<path d="M512 0H0V512H512V0Z" fill="white"/>
<path d="M122.88 399.36V215.04H184.32L256 327.68L327.68 215.04H389.12V399.36H327.68V286.72L256 378.88L184.32 286.72V399.36H122.88Z" fill="black"/>
</mask>
<g mask="url(#mask0_1_481)">
<path d="M419.84 143.36H92.16C69.5384 143.36 51.2 161.698 51.2 184.32V399.36C51.2 421.982 69.5384 440.32 92.16 440.32H419.84C442.462 440.32 460.8 421.982 460.8 399.36V184.32C460.8 161.698 442.462 143.36 419.84 143.36Z" fill="#0A0A0A"/>
</g>
<path opacity="0.45" d="M51.2 286.72H307.2" stroke="white" stroke-width="7.168"/>
<path opacity="0.45" d="M424.96 286.72H460.8" stroke="white" stroke-width="7.168"/>
<path d="M399.36 312.32C413.498 312.32 424.96 300.858 424.96 286.72C424.96 272.582 413.498 261.12 399.36 261.12C385.222 261.12 373.76 272.582 373.76 286.72C373.76 300.858 385.222 312.32 399.36 312.32Z" fill="white"/>
<path d="M399.36 296.96C405.015 296.96 409.6 292.375 409.6 286.72C409.6 281.065 405.015 276.48 399.36 276.48C393.705 276.48 389.12 281.065 389.12 286.72C389.12 292.375 393.705 296.96 399.36 296.96Z" fill="#0A0A0A"/>
</g>
<defs>
<clipPath id="clip0_1_481">
<rect width="512" height="512" fill="white"/>
</clipPath>
</defs>
</svg>
